<svg width="25" height="20" viewBox="0 0 25 20" fill="none" xmlns="http://www.w3.org/2000/svg">
<path d="M24.2694 2.75C23.4031 3.14375 22.4694 3.4025 21.5019 3.52625C22.4919 2.93 23.2569 1.985 23.6169 0.84875C22.6831 1.41125 21.6481 1.805 20.5569 2.03C19.6681 1.0625 18.4194 0.5 17.0019 0.5C14.3581 0.5 12.1981 2.66 12.1981 5.32625C12.1981 5.70875 12.2431 6.08 12.3219 6.42875C8.31688 6.22625 4.75063 4.3025 2.37688 1.38875C1.96063 2.0975 1.72438 2.93 1.72438 3.8075C1.72438 5.48375 2.56813 6.96875 3.87313 7.8125C3.07437 7.8125 2.33188 7.5875 1.67938 7.25V7.28375C1.67938 9.62375 3.34438 11.5813 5.54938 12.02C4.84144 12.2137 4.09823 12.2407 3.37813 12.0988C3.68368 13.0578 4.2821 13.897 5.08927 14.4983C5.89643 15.0996 6.87175 15.4329 7.87812 15.4513C6.17221 16.8017 4.05762 17.5317 1.88188 17.5212C1.49937 17.5212 1.11687 17.4987 0.734375 17.4538C2.87188 18.8263 5.41437 19.625 8.13688 19.625C17.0019 19.625 21.8731 12.2675 21.8731 5.88875C21.8731 5.675 21.8731 5.4725 21.8619 5.25875C22.8069 4.58375 23.6169 3.72875 24.2694 2.75Z" fill="#DC2D2A"/>
</svg>
