<svg width="171" height="57" viewBox="0 0 171 57" fill="none" xmlns="http://www.w3.org/2000/svg">
<g clip-path="url(#clip0)">
<path d="M157.383 4.79209e-05H13.6251C13.101 4.79209e-05 12.5833 4.7921e-05 12.0607 0.00289792C11.6232 0.00574792 11.1892 0.0140272 10.7475 0.0209954C9.78796 0.0322555 8.83066 0.116437 7.88394 0.272807C6.93855 0.432582 6.02277 0.733803 5.16758 1.16628C4.31344 1.60242 3.53298 2.16914 2.85453 2.84587C2.17251 3.52071 1.604 4.30072 1.17085 5.15593C0.736507 6.00943 0.435331 6.92404 0.277726 7.86816C0.118623 8.81109 0.0330076 9.76489 0.0216494 10.721C0.00838823 11.1579 0.00698781 11.5963 0 12.0332V44.9711C0.00698781 45.4135 0.00838823 45.8422 0.0216494 46.2848C0.0330111 47.2408 0.118626 48.1946 0.277726 49.1375C0.434896 50.0821 0.73609 50.9973 1.17085 51.8511C1.6038 52.7035 2.1724 53.4804 2.85453 54.1515C3.53041 54.8312 4.31137 55.3983 5.16758 55.8311C6.02276 56.2648 6.93844 56.5678 7.88394 56.73C8.83082 56.8851 9.78802 56.9693 10.7475 56.982C11.1892 56.9916 11.6232 56.9972 12.0607 56.9972C12.5833 57.0001 13.1011 57 13.6251 57H157.383C157.896 57 158.418 57.0001 158.932 56.9972C159.367 56.9972 159.814 56.9916 160.249 56.982C161.207 56.97 162.162 56.8858 163.107 56.73C164.056 56.5666 164.975 56.2637 165.834 55.8311C166.689 55.3981 167.47 54.831 168.145 54.1515C168.825 53.4778 169.395 52.7015 169.833 51.8511C170.265 50.9967 170.563 50.0816 170.718 49.1375C170.877 48.1945 170.966 47.2409 170.983 46.2848C170.989 45.8422 170.989 45.4135 170.989 44.9711C171 44.4534 171 43.9385 171 43.4124V13.589C171 13.0672 171 12.5495 170.989 12.0332C170.989 11.5963 170.989 11.1579 170.983 10.721C170.966 9.76475 170.877 8.81116 170.718 7.8681C170.563 6.92452 170.264 6.00999 169.833 5.15587C168.951 3.4417 167.553 2.04638 165.834 1.16615C164.975 0.734731 164.056 0.433591 163.107 0.272679C162.162 0.115619 161.207 0.031409 160.249 0.0207959C159.814 0.0138419 159.367 0.00549142 158.932 0.00271267C158.418 -0.000137329 157.896 -0.000137329 157.383 -0.000137329V4.79209e-05Z" fill="#A6A6A6"/>
<path d="M12.0677 55.7531C11.6323 55.7531 11.2074 55.7476 10.7754 55.7379C9.88056 55.7262 8.98779 55.6486 8.10443 55.5055C7.28074 55.364 6.48281 55.1008 5.73695 54.7247C4.99793 54.3517 4.32388 53.8625 3.74063 53.276C3.14894 52.6965 2.65633 52.0242 2.28232 51.286C1.9042 50.543 1.64251 49.7466 1.50638 48.9245C1.35937 48.0412 1.27983 47.148 1.26845 46.2526C1.25939 45.9521 1.24753 44.9515 1.24753 44.9515V12.0332C1.24753 12.0332 1.26016 11.0479 1.26852 10.7585C1.27942 9.86453 1.35849 8.97273 1.50506 8.09076C1.64144 7.26643 1.90333 6.46771 2.28167 5.72227C2.6543 4.98457 3.14418 4.31185 3.7323 3.73019C4.31977 3.14301 4.99597 2.65136 5.73625 2.27317C6.48039 1.89823 7.27682 1.63694 8.09884 1.49806C8.9851 1.35351 9.88098 1.27537 10.7789 1.26427L12.0684 1.24687H158.925L160.229 1.26497C161.119 1.27551 162.007 1.35296 162.885 1.49666C163.715 1.63729 164.52 1.9004 165.273 2.27735C166.756 3.0395 167.963 4.2453 168.724 5.72575C169.096 6.46605 169.354 7.25824 169.489 8.07546C169.637 8.96466 169.72 9.86347 169.737 10.7647C169.741 11.1683 169.741 11.6018 169.741 12.0332C169.752 12.5676 169.752 13.0762 169.752 13.589V43.4123C169.752 43.93 169.752 44.4352 169.741 44.9445C169.741 45.4079 169.741 45.8324 169.736 46.2693C169.719 47.1545 169.637 48.0373 169.491 48.9106C169.358 49.7386 169.098 50.5412 168.72 51.2903C168.343 52.0205 167.853 52.6869 167.268 53.2649C166.685 53.8546 166.009 54.3466 165.269 54.722C164.518 55.101 163.715 55.3651 162.885 55.5055C162.002 55.6493 161.109 55.727 160.214 55.7379C159.796 55.7476 159.357 55.7531 158.932 55.7531L157.383 55.756L12.0677 55.7531Z" fill="black"/>
<path d="M35.3947 28.9285C35.4101 27.7391 35.7269 26.5729 36.3157 25.5384C36.9045 24.5039 37.7461 23.6348 38.7623 23.0118C38.1167 22.0924 37.2651 21.3358 36.2751 20.8021C35.285 20.2684 34.1838 19.9722 33.0589 19.9371C30.6593 19.6859 28.3329 21.369 27.1101 21.369C25.8636 21.369 23.9809 19.962 21.9536 20.0036C20.6422 20.0459 19.3642 20.4261 18.244 21.1074C17.1239 21.7886 16.1998 22.7476 15.5618 23.8908C12.7981 28.6623 14.8595 35.6748 17.5069 39.5317C18.8315 41.4204 20.3795 43.53 22.405 43.4552C24.3871 43.3732 25.1274 42.1948 27.52 42.1948C29.8903 42.1948 30.5849 43.4552 32.6515 43.4076C34.7784 43.3732 36.1184 41.5106 37.3965 39.6041C38.3482 38.2584 39.0805 36.7711 39.5663 35.1973C38.3307 34.6761 37.2762 33.8038 36.5344 32.689C35.7925 31.5742 35.3962 30.2664 35.3947 28.9285Z" fill="white"/>
<path d="M31.4912 17.4005C32.6509 16.0123 33.2222 14.2279 33.0839 12.4264C31.3122 12.6119 29.6756 13.4563 28.5003 14.7913C27.9256 15.4435 27.4855 16.2022 27.205 17.0241C26.9246 17.846 26.8094 18.715 26.8659 19.5813C27.7521 19.5904 28.6288 19.3989 29.43 19.0211C30.2312 18.6434 30.9359 18.0893 31.4912 17.4005Z" fill="white"/>
<path d="M60.45 38.674H53.6859L52.0616 43.4569H49.1966L55.6034 25.7613H58.58L64.9868 43.4569H62.0729L60.45 38.674ZM54.3865 36.4669H59.7481L57.105 28.7046H57.031L54.3865 36.4669Z" fill="white"/>
<path d="M78.8232 37.0069C78.8232 41.0161 76.6714 43.5919 73.424 43.5919C72.6014 43.6348 71.7833 43.4459 71.0634 43.0467C70.3435 42.6475 69.7508 42.0542 69.3533 41.3347H69.2919V47.725H66.6362V30.5554H69.2068V32.7012H69.2556C69.6714 31.9852 70.2741 31.395 70.9995 30.9934C71.7249 30.5918 72.5459 30.3937 73.3752 30.4204C76.6587 30.4204 78.8232 33.0088 78.8232 37.0069ZM76.0936 37.0069C76.0936 34.3948 74.74 32.6776 72.6746 32.6776C70.6455 32.6776 69.2807 34.431 69.2807 37.0069C69.2807 39.6064 70.6455 41.3473 72.6746 41.3473C74.74 41.3473 76.0936 39.6426 76.0936 37.0069Z" fill="white"/>
<path d="M93.063 37.0069C93.063 41.0161 90.9111 43.5919 87.6638 43.5919C86.8412 43.6348 86.0231 43.4459 85.3031 43.0467C84.5832 42.6475 83.9906 42.0542 83.5931 41.3347H83.5316V47.7249H80.876V30.5554H83.4465V32.7012H83.4953C83.9111 31.9852 84.5138 31.395 85.2392 30.9934C85.9646 30.5917 86.7856 30.3937 87.6149 30.4204C90.8986 30.4204 93.063 33.0088 93.063 37.0069ZM90.3334 37.0069C90.3334 34.3948 88.9797 32.6776 86.9144 32.6776C84.8853 32.6776 83.5205 34.431 83.5205 37.0069C83.5205 39.6064 84.8853 41.3473 86.9144 41.3473C88.9797 41.3473 90.3334 39.6426 90.3334 37.0069H90.3334Z" fill="white"/>
<path d="M102.474 38.5265C102.671 40.2813 104.381 41.4335 106.717 41.4335C108.955 41.4335 110.565 40.2812 110.565 38.699C110.565 37.3255 109.594 36.5031 107.294 35.9394L104.995 35.387C101.736 34.6021 100.223 33.0825 100.223 30.6166C100.223 27.5634 102.892 25.4662 106.68 25.4662C110.43 25.4662 113.001 27.5634 113.087 30.6166H110.406C110.246 28.8506 108.782 27.7846 106.643 27.7846C104.503 27.7846 103.039 28.8631 103.039 30.4329C103.039 31.6839 103.974 32.4201 106.262 32.9836L108.217 33.4623C111.858 34.321 113.37 35.7794 113.37 38.3677C113.37 41.6783 110.726 43.7518 106.52 43.7518C102.585 43.7518 99.9275 41.727 99.7558 38.5264L102.474 38.5265Z" fill="white"/>
<path d="M119.102 27.5022V30.5554H121.562V32.6525H119.102V39.765C119.102 40.8699 119.594 41.3848 120.676 41.3848C120.968 41.3798 121.26 41.3593 121.55 41.3236V43.4082C121.063 43.4988 120.569 43.5398 120.074 43.5306C117.455 43.5306 116.434 42.5496 116.434 40.0475V32.6525H114.552V30.5554H116.434V27.5022H119.102Z" fill="white"/>
<path d="M122.987 37.0069C122.987 32.9476 125.384 30.3968 129.123 30.3968C132.874 30.3968 135.26 32.9475 135.26 37.0069C135.26 41.0773 132.887 43.617 129.123 43.617C125.361 43.617 122.987 41.0773 122.987 37.0069ZM132.555 37.0069C132.555 34.2223 131.275 32.5788 129.123 32.5788C126.971 32.5788 125.693 34.2348 125.693 37.0069C125.693 39.8026 126.971 41.4336 129.123 41.4336C131.275 41.4336 132.554 39.8026 132.554 37.0069H132.555Z" fill="white"/>
<path d="M137.45 30.5554H139.983V32.7513H140.044C140.216 32.0655 140.618 31.4594 141.185 31.0349C141.752 30.6104 142.448 30.3934 143.156 30.4204C143.462 30.4193 143.767 30.4525 144.066 30.5192V32.9962C143.68 32.8785 143.277 32.8245 142.873 32.8362C142.487 32.8206 142.102 32.8884 141.745 33.035C141.388 33.1817 141.067 33.4036 140.805 33.6856C140.542 33.9676 140.343 34.303 140.222 34.6687C140.102 35.0345 140.062 35.4219 140.106 35.8045V43.4569H137.45L137.45 30.5554Z" fill="white"/>
<path d="M156.31 39.6676C155.953 42.0097 153.666 43.617 150.739 43.617C146.976 43.617 144.64 41.1023 144.64 37.0681C144.64 33.0213 146.988 30.3967 150.628 30.3967C154.207 30.3967 156.458 32.8487 156.458 36.7605V37.6679H147.32V37.8279C147.278 38.3027 147.338 38.781 147.495 39.2311C147.653 39.6812 147.904 40.0927 148.234 40.4383C148.563 40.7839 148.962 41.0558 149.404 41.2358C149.847 41.4158 150.323 41.4998 150.801 41.4822C151.428 41.5409 152.058 41.3959 152.596 41.069C153.135 40.742 153.553 40.2505 153.789 39.6676L156.31 39.6676ZM147.333 35.817H153.801C153.825 35.3901 153.76 34.9629 153.61 34.5622C153.461 34.1614 153.23 33.7959 152.932 33.4884C152.634 33.1809 152.275 32.9382 151.879 32.7754C151.482 32.6127 151.056 32.5334 150.628 32.5426C150.195 32.54 149.767 32.6229 149.366 32.7864C148.966 32.9499 148.602 33.1908 148.296 33.4952C147.99 33.7997 147.747 34.1616 147.582 34.5601C147.416 34.9586 147.332 35.3858 147.333 35.817V35.817Z" fill="white"/>
<path d="M54.0536 12.4417C54.6104 12.4018 55.1691 12.4857 55.6894 12.6872C56.2097 12.8888 56.6787 13.203 57.0625 13.6071C57.4463 14.0113 57.7354 14.4954 57.9089 15.0244C58.0824 15.5535 58.1359 16.1144 58.0657 16.6666C58.0657 19.383 56.5935 20.9444 54.0536 20.9444H50.9738V12.4417H54.0536ZM52.2981 19.7419H53.9057C54.3035 19.7657 54.7017 19.7006 55.0711 19.5515C55.4406 19.4025 55.7721 19.1731 56.0414 18.8802C56.3108 18.5872 56.5112 18.2381 56.6282 17.8582C56.7452 17.4782 56.7758 17.0771 56.7177 16.6839C56.7715 16.2923 56.7379 15.8936 56.6191 15.5164C56.5003 15.1393 56.2994 14.793 56.0306 14.5024C55.7619 14.2118 55.432 13.9841 55.0646 13.8355C54.6973 13.687 54.3015 13.6213 53.9057 13.6432H52.2981V19.7419Z" fill="white"/>
<path d="M59.5617 17.7332C59.5212 17.3115 59.5696 16.886 59.7037 16.4841C59.8378 16.0821 60.0547 15.7126 60.3404 15.3991C60.6261 15.0856 60.9744 14.8352 61.3629 14.6638C61.7513 14.4924 62.1714 14.4038 62.5962 14.4038C63.021 14.4038 63.4411 14.4924 63.8296 14.6638C64.2181 14.8352 64.5664 15.0856 64.8521 15.3991C65.1378 15.7126 65.3547 16.0821 65.4888 16.4841C65.6229 16.886 65.6712 17.3115 65.6308 17.7332C65.672 18.1553 65.6242 18.5813 65.4904 18.9839C65.3567 19.3865 65.14 19.7568 64.8542 20.0709C64.5684 20.385 64.2199 20.636 63.831 20.8077C63.4421 20.9795 63.0215 21.0682 62.5962 21.0682C62.1709 21.0682 61.7503 20.9795 61.3615 20.8077C60.9726 20.636 60.6241 20.385 60.3383 20.0709C60.0525 19.7568 59.8358 19.3865 59.702 18.9839C59.5683 18.5813 59.5205 18.1553 59.5617 17.7332ZM64.3246 17.7332C64.3246 16.3423 63.698 15.5289 62.5983 15.5289C61.4945 15.5289 60.8735 16.3423 60.8735 17.7332C60.8735 19.1352 61.4945 19.9424 62.5983 19.9424C63.698 19.9423 64.3246 19.1296 64.3246 17.7332H64.3246Z" fill="white"/>
<path d="M73.6982 20.9443H72.3808L71.0509 16.2184H70.9505L69.6261 20.9443H68.3213L66.5476 14.5276H67.8357L68.9884 19.4239H69.0833L70.4062 14.5276H71.6245L72.9474 19.4239H73.0479L74.195 14.5276H75.4649L73.6982 20.9443Z" fill="white"/>
<path d="M76.9567 14.5276H78.1792V15.547H78.2741C78.4351 15.1809 78.7066 14.874 79.0508 14.669C79.395 14.4641 79.7947 14.3714 80.1943 14.4038C80.5074 14.3803 80.8218 14.4274 81.1141 14.5415C81.4065 14.6556 81.6694 14.8339 81.8833 15.0631C82.0972 15.2923 82.2566 15.5666 82.3498 15.8656C82.443 16.1646 82.4675 16.4806 82.4215 16.7904V20.9442H81.1516V17.1084C81.1516 16.0772 80.7023 15.5644 79.7631 15.5644C79.5505 15.5545 79.3383 15.5906 79.141 15.6701C78.9437 15.7497 78.766 15.8708 78.6201 16.0253C78.4742 16.1797 78.3634 16.3638 78.2955 16.5649C78.2276 16.7661 78.2041 16.9794 78.2266 17.1904V20.9443H76.9567L76.9567 14.5276Z" fill="white"/>
<path d="M84.445 12.0227H85.7149V20.9443H84.445V12.0227Z" fill="white"/>
<path d="M87.4802 17.7332C87.4398 17.3115 87.4882 16.886 87.6224 16.484C87.7565 16.0821 87.9734 15.7125 88.2591 15.399C88.5449 15.0855 88.8932 14.835 89.2817 14.6636C89.6702 14.4923 90.0903 14.4037 90.5151 14.4037C90.94 14.4037 91.3601 14.4923 91.7486 14.6636C92.1371 14.835 92.4854 15.0855 92.7711 15.399C93.0569 15.7125 93.2738 16.0821 93.4079 16.484C93.542 16.886 93.5904 17.3115 93.55 17.7332C93.5912 18.1553 93.5433 18.5814 93.4095 18.984C93.2758 19.3866 93.059 19.7568 92.7732 20.0709C92.4874 20.3849 92.1388 20.6359 91.7499 20.8077C91.3611 20.9794 90.9404 21.0682 90.5151 21.0682C90.0898 21.0682 89.6692 20.9794 89.2803 20.8077C88.8914 20.6359 88.5429 20.3849 88.2571 20.0709C87.9713 19.7568 87.7545 19.3866 87.6207 18.984C87.4869 18.5814 87.4391 18.1553 87.4802 17.7332ZM92.2431 17.7332C92.2431 16.3423 91.6165 15.5289 90.5169 15.5289C89.413 15.5289 88.7921 16.3423 88.7921 17.7332C88.7921 19.1352 89.4131 19.9424 90.5169 19.9424C91.6165 19.9423 92.2431 19.1296 92.2431 17.7332H92.2431Z" fill="white"/>
<path d="M94.8869 19.1296C94.8869 17.9746 95.7493 17.3087 97.2802 17.2141L99.0232 17.1139V16.5601C99.0232 15.8823 98.5738 15.4997 97.7058 15.4997C96.9969 15.4997 96.5057 15.7592 96.3647 16.2129H95.1353C95.2651 15.1107 96.3047 14.4038 97.7644 14.4038C99.3777 14.4038 100.288 15.2046 100.288 16.5601V20.9443H99.0651V20.0425H98.9646C98.7606 20.366 98.4743 20.6297 98.1347 20.8067C97.7951 20.9837 97.4146 21.0677 97.0318 21.05C96.7617 21.078 96.4887 21.0493 96.2303 20.9657C95.972 20.882 95.7342 20.7453 95.5321 20.5644C95.33 20.3835 95.1682 20.1623 95.0571 19.9152C94.9459 19.6681 94.888 19.4005 94.8869 19.1296ZM99.0232 18.5814V18.0449L97.4519 18.1451C96.5657 18.2042 96.1638 18.5048 96.1638 19.0705C96.1638 19.648 96.6662 19.9841 97.357 19.9841C97.5594 20.0045 97.7639 19.9841 97.9582 19.9242C98.1526 19.8642 98.3328 19.7658 98.4883 19.6349C98.6438 19.5041 98.7712 19.3434 98.8631 19.1624C98.955 18.9813 99.0094 18.7838 99.0232 18.5814Z" fill="white"/>
<path d="M101.957 17.7332C101.957 15.7056 103.002 14.4212 104.628 14.4212C105.03 14.4027 105.429 14.4987 105.778 14.6981C106.128 14.8974 106.413 15.1919 106.601 15.5469H106.696V12.0227H107.966V20.9443H106.749V19.9305H106.648C106.446 20.2832 106.151 20.5739 105.794 20.7712C105.438 20.9686 105.035 21.065 104.628 21.05C102.991 21.0501 101.957 19.7656 101.957 17.7332ZM103.268 17.7332C103.268 19.0942 103.912 19.9131 104.988 19.9131C106.058 19.9131 106.719 19.0824 106.719 17.7388C106.719 16.4014 106.051 15.5588 104.988 15.5588C103.919 15.5588 103.268 16.3833 103.268 17.7332H103.268Z" fill="white"/>
<path d="M113.22 17.7332C113.179 17.3115 113.228 16.886 113.362 16.4841C113.496 16.0821 113.713 15.7126 113.998 15.3991C114.284 15.0856 114.632 14.8352 115.021 14.6638C115.409 14.4924 115.829 14.4038 116.254 14.4038C116.679 14.4038 117.099 14.4924 117.488 14.6638C117.876 14.8352 118.224 15.0856 118.51 15.3991C118.796 15.7126 119.013 16.0821 119.147 16.4841C119.281 16.886 119.329 17.3115 119.289 17.7332C119.33 18.1553 119.282 18.5813 119.148 18.9839C119.015 19.3865 118.798 19.7568 118.512 20.0709C118.226 20.385 117.878 20.636 117.489 20.8077C117.1 20.9795 116.68 21.0682 116.254 21.0682C115.829 21.0682 115.408 20.9795 115.019 20.8077C114.631 20.636 114.282 20.385 113.996 20.0709C113.71 19.7568 113.494 19.3865 113.36 18.9839C113.226 18.5813 113.178 18.1553 113.22 17.7332ZM117.983 17.7332C117.983 16.3423 117.356 15.5289 116.256 15.5289C115.152 15.5289 114.532 16.3423 114.532 17.7332C114.532 19.1352 115.153 19.9424 116.256 19.9424C117.356 19.9423 117.983 19.1296 117.983 17.7332Z" fill="white"/>
<path d="M120.993 14.5276H122.215V15.547H122.31C122.471 15.1809 122.743 14.874 123.087 14.669C123.431 14.4641 123.831 14.3714 124.23 14.4038C124.543 14.3803 124.858 14.4274 125.15 14.5415C125.442 14.6556 125.705 14.8339 125.919 15.0631C126.133 15.2923 126.293 15.5666 126.386 15.8656C126.479 16.1646 126.503 16.4806 126.457 16.7904V20.9442H125.188V17.1084C125.188 16.0772 124.738 15.5644 123.799 15.5644C123.586 15.5545 123.374 15.5906 123.177 15.6701C122.98 15.7497 122.802 15.8708 122.656 16.0253C122.51 16.1797 122.399 16.3638 122.331 16.5649C122.264 16.7661 122.24 16.9794 122.263 17.1904V20.9443H120.993V14.5276Z" fill="white"/>
<path d="M133.633 12.9301V14.5568H135.027V15.6235H133.633V18.923C133.633 19.5951 133.911 19.8895 134.543 19.8895C134.705 19.889 134.867 19.8792 135.027 19.8602V20.9151C134.799 20.9558 134.568 20.9774 134.337 20.9798C132.924 20.9798 132.362 20.4844 132.362 19.2472V15.6235H131.34V14.5568H132.362V12.9301H133.633Z" fill="white"/>
<path d="M136.762 12.0227H138.021V15.5588H138.121C138.29 15.1893 138.569 14.8806 138.92 14.6749C139.271 14.4692 139.677 14.3765 140.083 14.4093C140.395 14.3924 140.706 14.4443 140.995 14.5612C141.284 14.6781 141.544 14.8572 141.755 15.0857C141.967 15.3141 142.126 15.5864 142.22 15.883C142.314 16.1796 142.341 16.4932 142.299 16.8015V20.9443H141.028V17.1139C141.028 16.089 140.549 15.5699 139.652 15.5699C139.434 15.5521 139.214 15.582 139.009 15.6576C138.803 15.7332 138.617 15.8526 138.463 16.0076C138.308 16.1625 138.19 16.3492 138.115 16.5546C138.041 16.76 138.013 16.9792 138.032 17.1967V20.9443H136.762L136.762 12.0227Z" fill="white"/>
<path d="M149.704 19.2117C149.531 19.7982 149.158 20.3055 148.648 20.6448C148.138 20.9842 147.525 21.134 146.916 21.0681C146.492 21.0793 146.07 20.9983 145.681 20.8308C145.292 20.6634 144.943 20.4134 144.661 20.0983C144.378 19.7831 144.167 19.4104 144.043 19.006C143.919 18.6015 143.885 18.1751 143.943 17.7561C143.887 17.3359 143.921 16.9085 144.045 16.5029C144.169 16.0972 144.378 15.7228 144.66 15.4049C144.941 15.087 145.287 14.8331 145.676 14.6604C146.064 14.4877 146.485 14.4001 146.91 14.4038C148.7 14.4038 149.781 15.6236 149.781 17.6385V18.0804H145.237V18.1514C145.217 18.3868 145.247 18.6239 145.324 18.8472C145.401 19.0706 145.525 19.2754 145.686 19.4484C145.847 19.6215 146.043 19.7591 146.261 19.8523C146.479 19.9454 146.714 19.9922 146.951 19.9896C147.254 20.026 147.562 19.9714 147.835 19.8329C148.107 19.6944 148.332 19.4782 148.481 19.2117L149.704 19.2117ZM145.237 17.1438H148.487C148.503 16.9285 148.474 16.7122 148.401 16.5088C148.328 16.3054 148.213 16.1195 148.064 15.9629C147.915 15.8064 147.735 15.6827 147.535 15.5998C147.335 15.5169 147.12 15.4766 146.903 15.4816C146.683 15.4788 146.465 15.5199 146.262 15.6025C146.059 15.6851 145.874 15.8074 145.718 15.9623C145.563 16.1173 145.441 16.3016 145.358 16.5045C145.275 16.7074 145.234 16.9248 145.237 17.1438H145.237Z" fill="white"/>
</g>
<defs>
<clipPath id="clip0">
<rect width="171" height="57" fill="white"/>
</clipPath>
</defs>
</svg>
