<svg width="110" height="34" viewBox="0 0 110 34" fill="none" xmlns="http://www.w3.org/2000/svg">
<path d="M29.8691 12.1793H22.8894C22.7619 11.291 22.5016 10.5019 22.1085 9.81211C21.7154 9.11188 21.2108 8.51615 20.5946 8.02494C19.9785 7.53373 19.2667 7.15748 18.4593 6.8962C17.6625 6.63492 16.7967 6.50428 15.8618 6.50428C14.1726 6.50428 12.7013 6.9171 11.4477 7.74276C10.1941 8.55796 9.22202 9.74941 8.53148 11.3171C7.84095 12.8743 7.49568 14.766 7.49568 16.9922C7.49568 19.281 7.84095 21.204 8.53148 22.7613C9.23265 24.3185 10.21 25.4943 11.4636 26.2886C12.7172 27.0829 14.1673 27.48 15.814 27.48C16.7383 27.48 17.5935 27.3599 18.3796 27.1195C19.1764 26.8791 19.8829 26.529 20.499 26.0691C21.1152 25.5988 21.6251 25.0292 22.0288 24.3603C22.4432 23.6915 22.73 22.9285 22.8894 22.0715L29.8691 22.1029C29.6885 23.5765 29.237 24.9979 28.5146 26.367C27.8028 27.7257 26.8414 28.9432 25.6303 30.0197C24.4298 31.0858 22.9956 31.9323 21.3277 32.5594C19.6704 33.176 17.7953 33.4843 15.7025 33.4843C12.7916 33.4843 10.1888 32.8363 7.89407 31.5404C5.60998 30.2444 3.80396 28.3684 2.476 25.9124C1.15867 23.4563 0.5 20.4829 0.5 16.9922C0.5 13.491 1.16929 10.5124 2.50787 8.0563C3.84645 5.60024 5.6631 3.72945 7.95781 2.44394C10.2525 1.14798 12.8341 0.5 15.7025 0.5C17.5935 0.5 19.3464 0.761283 20.9612 1.28385C22.5866 1.80641 24.0261 2.56936 25.2797 3.57268C26.5333 4.56556 27.5531 5.78314 28.3393 7.22542C29.1361 8.6677 29.646 10.319 29.8691 12.1793Z" fill="#3FD38C"/>
<path d="M33.0221 33.0454V0.938955H54.6306V6.53563H39.9222V14.186H53.1964V19.7827H39.9222V33.0454H33.0221Z" fill="#3FD38C"/>
<path d="M57.4768 33.0454V0.938955H70.3527C72.828 0.938955 74.9368 1.40404 76.6791 2.33421C78.4214 3.25392 79.7493 4.5342 80.663 6.17506C81.5872 7.80546 82.0494 9.6867 82.0494 11.8188C82.0494 13.9508 81.5819 15.8321 80.647 17.4625C79.7122 19.0929 78.3576 20.3627 76.5835 21.272C74.82 22.1812 72.6846 22.6359 70.1774 22.6359H61.9707V17.196H69.0619C70.3899 17.196 71.4841 16.9713 72.3447 16.5219C73.2158 16.062 73.8638 15.4297 74.2888 14.6249C74.7244 13.8097 74.9421 12.8743 74.9421 11.8188C74.9421 10.7527 74.7244 9.82257 74.2888 9.02827C73.8638 8.22352 73.2158 7.60166 72.3447 7.16271C71.4735 6.7133 70.3687 6.4886 69.0301 6.4886H64.3769V33.0454H57.4768Z" fill="#3FD38C"/>
<path d="M102.441 10.1727C102.313 8.90808 101.766 7.92565 100.799 7.22542C99.8325 6.52518 98.5204 6.17506 96.8632 6.17506C95.737 6.17506 94.7862 6.33183 94.0107 6.64537C93.2352 6.94846 92.6402 7.37174 92.2259 7.9152C91.8222 8.45867 91.6204 9.0753 91.6204 9.76509C91.5991 10.3399 91.7213 10.8416 91.9869 11.2701C92.2631 11.6986 92.6403 12.0696 93.1183 12.3831C93.5964 12.6862 94.1488 12.9527 94.7756 13.1827C95.4024 13.4021 96.0717 13.5903 96.7835 13.747L99.7156 14.4368C101.139 14.7504 102.446 15.1684 103.636 15.691C104.826 16.2135 105.856 16.8563 106.727 17.6192C107.598 18.3822 108.273 19.281 108.751 20.3157C109.24 21.3504 109.489 22.5366 109.5 23.8743C109.489 25.8392 108.979 27.5428 107.97 28.985C106.972 30.4169 105.527 31.5299 103.636 32.3242C101.755 33.1081 99.4872 33.5 96.8313 33.5C94.1966 33.5 91.9019 33.1029 89.9471 32.3086C88.003 31.5143 86.4838 30.3385 85.3896 28.7812C84.306 27.2135 83.7376 25.2748 83.6845 22.9651H90.3615C90.4358 24.0416 90.7492 24.9404 91.3017 25.6615C91.8647 26.3722 92.6137 26.9105 93.5486 27.2763C94.4941 27.6316 95.5618 27.8093 96.7516 27.8093C97.9202 27.8093 98.9348 27.642 99.7953 27.3076C100.666 26.9732 101.341 26.5081 101.819 25.9124C102.297 25.3166 102.536 24.6321 102.536 23.8587C102.536 23.1375 102.318 22.5314 101.883 22.0401C101.458 21.5489 100.831 21.1309 100.002 20.786C99.1844 20.4411 98.1805 20.1276 96.9906 19.8454L93.437 18.9675C90.6855 18.309 88.513 17.2796 86.9194 15.8791C85.3259 14.4786 84.5344 12.5922 84.545 10.2197C84.5344 8.27577 85.0603 6.57744 86.1226 5.12471C87.1956 3.67197 88.667 2.53801 90.5368 1.7228C92.4065 0.907601 94.5313 0.5 96.911 0.5C99.3332 0.5 101.447 0.907601 103.253 1.7228C105.07 2.53801 106.483 3.67197 107.492 5.12471C108.501 6.57744 109.022 8.2601 109.054 10.1727H102.441Z" fill="#3FD38C"/>
</svg>
