<svg width="375" height="609" fill="none" xmlns="http://www.w3.org/2000/svg"><path d="M-124 66h283l125 272 91-5V0h-499v66z" fill="url(#paint0_linear)"/><circle cx="107.3" cy="205.4" r="2" transform="rotate(30 107 205)" fill="#fff"/><circle cx="106.1" cy="102.5" r="1.1" transform="rotate(30 106 102)" fill="#fff"/><circle opacity=".6" cx="117.6" cy="221.4" r="1.1" transform="rotate(30 118 221)" fill="#fff"/><circle r="2.8" transform="scale(-1 1) rotate(-30 41 558)" fill="#fff"/><circle r="1.5" transform="scale(-1 1) rotate(-30 156 665)" fill="#fff"/><circle opacity=".6" r="4.1" transform="scale(-1 1) rotate(-30 219 742)" fill="#fff"/><circle r="1.5" transform="scale(-1 1) rotate(-30 -17 706)" fill="#fff"/><circle cx="241.7" cy="28.7" r="2" transform="rotate(30 242 29)" fill="#fff"/><g filter="url(#filter0_i)"><path d="M748 409c5 30 3 96-32 142s-101 70-163 51c-51-17-90-85-118-135l-13-28c-18-38-27-56-83-15-71 52-204 44-228-91C87 201-34 351-21 491h-335V204C-324 147-229 15-86-3 81-24 171 38 220 98c28 35 39 75 49 109 14 50 24 86 80 67 78-27 129 10 163 82 10 22 18 47 25 72 16 55 31 107 78 107 66 0 115-88 104-179-8-71 27 21 29 53z" fill="url(#paint1_linear)"/></g><path d="M39 187c291-13 267 257 328 219 70-35-121 125-211 90C68 461-17 351-38 368c67-68 126-104 77-181z" fill="#fff"/><defs><linearGradient id="paint0_linear" x1="125.3" y1="0" x2="125.3" y2="338" gradientUnits="userSpaceOnUse"><stop stop-color="#50398A"/><stop offset="1" stop-color="#8439A0"/></linearGradient><linearGradient id="paint1_linear" x1="674.9" y1="24.5" x2="612.4" y2="779.9" gradientUnits="userSpaceOnUse"><stop stop-color="#39ECB6"/><stop offset="0" stop-color="#6FD2E8"/><stop offset=".4" stop-color="#8578D5"/><stop offset=".7" stop-color="#E83FE1"/><stop offset=".9" stop-color="#E83FE1"/></linearGradient><filter id="filter0_i" x="-356" y="-14" width="1121.2" height="622.6" filterUnits="userSpaceOnUse" color-interpolation-filters="sRGB"><feFlood flood-opacity="0" result="BackgroundImageFix"/><feBlend in="SourceGraphic" in2="BackgroundImageFix" result="shape"/><feColorMatrix in="SourceAlpha" values="0 0 0 0 0 0 0 0 0 0 0 0 0 0 0 0 0 0 127 0" result="hardAlpha"/><feOffset dx="15" dy="-7"/><feGaussianBlur stdDeviation="14"/><feComposite in2="hardAlpha" operator="arithmetic" k2="-1" k3="1"/><feColorMatrix values="0 0 0 0 0 0 0 0 0 0 0 0 0 0 0 0 0 0 0.15 0"/><feBlend in2="shape" result="effect1_innerShadow"/></filter></defs></svg>