<svg width="24" height="24" viewBox="0 0 24 24" fill="none" xmlns="http://www.w3.org/2000/svg">
<g opacity="0.5">
<path fill-rule="evenodd" clip-rule="evenodd" d="M5.34292 22H18.6571C20.5051 22 22 20.5051 22 18.6571V5.34292C22 3.50308 20.4969 2 18.6571 2H5.34292C3.50308 2 2 3.50308 2 5.34292V18.6571C2 20.4969 3.50308 22 5.34292 22ZM17.638 6.70177C18.1824 6.70177 18.6236 6.26048 18.6236 5.71612C18.6236 5.17176 18.1824 4.73047 17.638 4.73047C17.0936 4.73047 16.6523 5.17176 16.6523 5.71612C16.6523 6.26048 17.0936 6.70177 17.638 6.70177ZM11.5026 17.138C10.1309 17.138 8.84142 16.6042 7.87222 15.635C6.90302 14.6658 6.36914 13.3762 6.36914 12.0046C6.36914 10.6329 6.90302 9.34337 7.87222 8.37417C8.84142 7.40497 10.1309 6.87109 11.5026 6.87109C12.8743 6.87109 14.1638 7.40497 15.133 8.37417C16.1022 9.34337 16.6361 10.6329 16.6361 12.0046C16.6361 13.3762 16.1022 14.6658 15.133 15.635C14.1556 16.6042 12.8743 17.138 11.5026 17.138ZM11.5026 7.9635C9.27674 7.9635 7.46154 9.77048 7.46154 12.0046C7.46154 14.2304 9.26852 16.0456 11.5026 16.0456C13.7285 16.0456 15.5437 14.2386 15.5437 12.0046C15.5355 9.77869 13.7285 7.9635 11.5026 7.9635Z" fill="white"/>
</g>
</svg>
