<svg width="27" height="27" viewBox="0 0 27 27" fill="none" xmlns="http://www.w3.org/2000/svg">
<path d="M4.55625 23.625C4.36875 23.625 4.17188 23.6201 3.96563 23.6104C3.75938 23.6006 3.5625 23.5868 3.375 23.5688V16.9875L9 15.8625L12.2625 19.125C13.6875 18.2625 14.9955 17.2406 16.1865 16.0594C17.3775 14.8781 18.3664 13.6125 19.1531 12.2625L15.9469 9.02812L16.9875 3.375H23.5688C23.6063 3.5625 23.625 3.75938 23.625 3.96563V4.55625C23.625 6.975 23.0861 9.333 22.0084 11.6302C20.9306 13.9275 19.5056 15.9664 17.7334 17.7469C15.9611 19.5281 13.9268 20.9531 11.6302 22.0219C9.33375 23.0906 6.97575 23.625 4.55625 23.625Z" fill="#DC2D2A"/>
</svg>
