<svg width="22" height="21" viewBox="0 0 22 21" fill="none" xmlns="http://www.w3.org/2000/svg">
<path d="M2.05625 20.625C1.86875 20.625 1.67188 20.6201 1.46563 20.6104C1.25938 20.6006 1.0625 20.5868 0.875 20.5688V13.9875L6.5 12.8625L9.7625 16.125C11.1875 15.2625 12.4955 14.2406 13.6865 13.0594C14.8775 11.8781 15.8664 10.6125 16.6531 9.2625L13.4469 6.02812L14.4875 0.375H21.0688C21.1063 0.5625 21.125 0.759375 21.125 0.965625V1.55625C21.125 3.975 20.5861 6.333 19.5084 8.63025C18.4306 10.9275 17.0056 12.9664 15.2334 14.7469C13.4611 16.5281 11.4268 17.9531 9.13025 19.0219C6.83375 20.0906 4.47575 20.625 2.05625 20.625Z" fill="white"/>
</svg>
