<svg width="597" height="597" viewBox="0 0 597 597" fill="none" xmlns="http://www.w3.org/2000/svg">
<path d="M429.377 349.01C417.639 322.588 396.524 328.049 370.527 328.571L338.783 346.357L371.508 386.736C379.694 386.212 391.949 377.893 414.665 397.447C437.38 417.001 454.056 399.265 475.762 399.475C493.127 399.643 499.281 420.881 500.187 431.479C500.829 384.399 476.247 371.358 462.902 373.353C449.558 375.349 441.114 375.432 429.377 349.01Z" fill="url(#paint0_linear)"/>
<path d="M429.377 349.01C417.639 322.588 396.524 328.049 370.527 328.571L338.783 346.357L371.508 386.736C379.694 386.212 391.949 377.893 414.665 397.447C437.38 417.001 454.056 399.265 475.762 399.475C493.127 399.643 499.281 420.881 500.187 431.479C500.829 384.399 476.247 371.358 462.902 373.353C449.558 375.349 441.114 375.432 429.377 349.01Z" fill="url(#paint1_radial)"/>
<g filter="url(#filter0_d)">
<path d="M422.33 327.267L287.136 220.101L211.561 335.159L377.497 389.113C424.117 391.426 434.6 352.169 422.33 327.267Z" fill="white"/>
<path d="M422.33 327.267L287.136 220.101L211.561 335.159L377.497 389.113C424.117 391.426 434.6 352.169 422.33 327.267Z" fill="#A8ACC2"/>
<path d="M422.33 327.267L287.136 220.101L211.561 335.159L377.497 389.113C424.117 391.426 434.6 352.169 422.33 327.267Z" fill="url(#paint2_linear)"/>
<path d="M422.328 327.266L403.265 312.099C420.923 350.625 411.002 380.823 354.566 381.8L377.495 389.112C424.115 391.425 434.598 352.167 422.328 327.266Z" fill="white"/>
<path d="M422.328 327.266L403.265 312.099C420.923 350.625 411.002 380.823 354.566 381.8L377.495 389.112C424.115 391.425 434.598 352.167 422.328 327.266Z" fill="#B637A7"/>
<path d="M319.508 304.275C319.749 304.211 322.305 299.478 323.553 297.119L392.705 323.017L435.542 347.62L431.461 354.398L424.13 352.333L399.602 349.01L319.508 304.275Z" fill="#C4C4C4"/>
<path d="M319.508 304.275C319.749 304.211 322.305 299.478 323.553 297.119L392.705 323.017L435.542 347.62L431.461 354.398L424.13 352.333L399.602 349.01L319.508 304.275Z" fill="#81368D"/>
<path d="M319.508 304.275C319.749 304.211 322.305 299.478 323.553 297.119L392.705 323.017L435.542 347.62L431.461 354.398L424.13 352.333L399.602 349.01L319.508 304.275Z" fill="url(#paint3_linear)"/>
<path d="M323.749 296.752C322.485 299.103 319.897 303.818 319.656 303.881L388.884 329.732L431.266 354.765L435.393 348.015L392.724 323.121L323.749 296.752Z" fill="#C4C4C4"/>
<path d="M323.749 296.752C322.485 299.103 319.897 303.818 319.656 303.881L388.884 329.732L431.266 354.765L435.393 348.015L392.724 323.121L323.749 296.752Z" fill="#81368D"/>
<path d="M323.749 296.752C322.485 299.103 319.897 303.818 319.656 303.881L388.884 329.732L431.266 354.765L435.393 348.015L392.724 323.121L323.749 296.752Z" fill="url(#paint4_linear)"/>
<path d="M262.776 439.949L269.595 354.069L368.638 385.924L311.845 451.787L262.776 439.949Z" fill="#C4C4C4"/>
<path d="M262.776 439.949L269.595 354.069L368.638 385.924L311.845 451.787L262.776 439.949Z" fill="#DA71EB"/>
<path d="M262.776 439.949L269.595 354.069L368.638 385.924L311.845 451.787L262.776 439.949Z" fill="url(#paint5_linear)"/>
<path d="M256.851 445.461L258.46 440.024L262.863 440.062L312.292 451.588L316.252 453.934L313.095 458.422L267.22 450.225L256.851 445.461Z" fill="#474747"/>
<path d="M256.851 445.461L258.46 440.024L262.863 440.062L312.292 451.588L316.252 453.934L313.095 458.422L267.22 450.225L256.851 445.461Z" fill="#542269"/>
<path d="M256.851 445.461L258.46 440.024L262.863 440.062L312.292 451.588L316.252 453.934L313.095 458.422L267.22 450.225L256.851 445.461Z" fill="url(#paint6_linear)"/>
<path d="M393.012 197.087L325.576 250.548L407.107 315.265L430.134 231.344L393.012 197.087Z" fill="#C4C4C4"/>
<path d="M393.012 197.087L325.576 250.548L407.107 315.265L430.134 231.344L393.012 197.087Z" fill="#DA71EB"/>
<path d="M393.012 197.087L325.576 250.548L407.107 315.265L430.134 231.344L393.012 197.087Z" fill="url(#paint7_linear)"/>
<path d="M394.288 189.089L390.673 193.453L393.155 197.097L430.218 231.828L434.367 233.819L436.333 228.694L404.008 195.069L394.288 189.089Z" fill="#474747"/>
<path d="M394.288 189.089L390.673 193.453L393.155 197.097L430.218 231.828L434.367 233.819L436.333 228.694L404.008 195.069L394.288 189.089Z" fill="#542269"/>
<path d="M394.288 189.089L390.673 193.453L393.155 197.097L430.218 231.828L434.367 233.819L436.333 228.694L404.008 195.069L394.288 189.089Z" fill="url(#paint8_linear)"/>
<path d="M381.554 318.103L377.519 326.22L384.239 330.654L428.41 353.65L435.654 356.898L439.801 349.061L389.141 320.565L381.554 318.103Z" fill="#474747"/>
<path d="M381.554 318.103L377.519 326.22L384.239 330.654L428.41 353.65L435.654 356.898L439.801 349.061L389.141 320.565L381.554 318.103Z" fill="url(#paint9_linear)"/>
<path d="M381.554 318.103L377.519 326.22L384.239 330.654L428.41 353.65L435.654 356.898L439.801 349.061L389.141 320.565L381.554 318.103Z" fill="url(#paint10_linear)"/>
<path d="M287.127 219.45C254.653 184.781 183.867 185.286 131.35 191.939C116.4 193.833 107.408 208.978 113.445 222.786C130.736 262.337 164.746 319.855 212.475 334.933C277.141 328.268 311.046 266.892 287.127 219.45Z" fill="white"/>
<path d="M287.127 219.45C254.653 184.781 183.867 185.286 131.35 191.939C116.4 193.833 107.408 208.978 113.445 222.786C130.736 262.337 164.746 319.855 212.475 334.933C277.141 328.268 311.046 266.892 287.127 219.45Z" fill="url(#paint11_radial)"/>
<g filter="url(#filter1_i)">
<ellipse rx="13.279" ry="10.199" transform="matrix(0.981566 0.190477 -0.189878 0.981933 343.382 358.446)" fill="#8330A6"/>
</g>
<g opacity="0.8" filter="url(#filter2_d)">
<ellipse rx="11.4949" ry="8.82876" transform="matrix(0.981525 0.190688 -0.189667 0.981974 343.397 358.587)" fill="url(#paint12_radial)"/>
</g>
<g filter="url(#filter3_i)">
<ellipse rx="6.33828" ry="4.86816" transform="matrix(0.981565 0.190478 -0.189877 0.981934 366.722 368.7)" fill="#8330A6"/>
</g>
<g opacity="0.8" filter="url(#filter4_d)">
<ellipse rx="5.48672" ry="4.21411" transform="matrix(0.981565 0.190481 -0.189874 0.981934 366.728 368.765)" fill="url(#paint13_radial)"/>
<ellipse rx="5.48672" ry="4.21411" transform="matrix(0.981565 0.190481 -0.189874 0.981934 366.728 368.765)" fill="url(#paint14_radial)"/>
</g>
<g filter="url(#filter5_f)">
<path fill-rule="evenodd" clip-rule="evenodd" d="M245.477 328.307L405.095 384.144L403.344 384.664L231.113 331.358L245.477 328.307Z" fill="white" fill-opacity="0.4"/>
</g>
<ellipse rx="32.2353" ry="24.7585" transform="matrix(0.981566 0.190476 -0.189879 0.981933 296.088 331.104)" fill="#532269"/>
<ellipse rx="31.7216" ry="24.364" transform="matrix(0.981524 0.190689 -0.189666 0.981974 295.257 333.953)" fill="#CFD2DB"/>
<g filter="url(#filter6_i)">
<ellipse rx="28.7507" ry="21.7458" transform="matrix(0.981524 0.190689 -0.189666 0.981974 295.218 334.516)" fill="#C4C4C4"/>
<ellipse rx="28.7507" ry="21.7458" transform="matrix(0.981524 0.190689 -0.189666 0.981974 295.218 334.516)" fill="#8030A3"/>
</g>
<ellipse rx="25.9418" ry="19.9248" transform="matrix(0.981524 0.190689 -0.189667 0.981974 295.231 334.368)" fill="#C4C4C4"/>
<ellipse rx="25.9418" ry="19.9248" transform="matrix(0.981524 0.190689 -0.189667 0.981974 295.231 334.368)" fill="url(#paint15_linear)"/>
<ellipse rx="25.9418" ry="19.9248" transform="matrix(0.981524 0.190689 -0.189667 0.981974 295.231 334.368)" fill="#C650FE" fill-opacity="0.37"/>
<path d="M216.231 200.023C240.696 203.883 261.233 211.528 259.875 216.448C258.517 221.369 237.221 215.651 209.477 211.602C181.733 207.552 159.188 211.572 159.081 202.949C158.974 194.327 191.766 196.163 216.231 200.023Z" fill="white" fill-opacity="0.72"/>
<path d="M211.759 216.448C217.097 217.407 221.715 218.681 221.382 219.888C221.049 221.095 215.92 219.509 210.367 218.858C204.814 218.207 199.53 217.939 199.416 216.375C199.302 214.81 206.421 215.49 211.759 216.448Z" fill="white" fill-opacity="0.6"/>
</g>
<defs>
<filter id="filter0_d" x="99.5449" y="176.389" width="368.256" height="310.033" filterUnits="userSpaceOnUse" color-interpolation-filters="sRGB">
<feFlood flood-opacity="0" result="BackgroundImageFix"/>
<feColorMatrix in="SourceAlpha" type="matrix" values="0 0 0 0 0 0 0 0 0 0 0 0 0 0 0 0 0 0 127 0"/>
<feOffset dx="8" dy="8"/>
<feGaussianBlur stdDeviation="10"/>
<feColorMatrix type="matrix" values="0 0 0 0 0 0 0 0 0 0 0 0 0 0 0 0 0 0 0.04 0"/>
<feBlend mode="normal" in2="BackgroundImageFix" result="effect1_dropShadow"/>
<feBlend mode="normal" in="SourceGraphic" in2="effect1_dropShadow" result="shape"/>
</filter>
<filter id="filter1_i" x="330.203" y="348.115" width="26.3581" height="21.6634" filterUnits="userSpaceOnUse" color-interpolation-filters="sRGB">
<feFlood flood-opacity="0" result="BackgroundImageFix"/>
<feBlend mode="normal" in="SourceGraphic" in2="BackgroundImageFix" result="shape"/>
<feColorMatrix in="SourceAlpha" type="matrix" values="0 0 0 0 0 0 0 0 0 0 0 0 0 0 0 0 0 0 127 0" result="hardAlpha"/>
<feOffset dy="1"/>
<feGaussianBlur stdDeviation="2"/>
<feComposite in2="hardAlpha" operator="arithmetic" k2="-1" k3="1"/>
<feColorMatrix type="matrix" values="0 0 0 0 0 0 0 0 0 0 0 0 0 0 0 0 0 0 0.25 0"/>
<feBlend mode="normal" in2="shape" result="effect1_innerShadow"/>
</filter>
<filter id="filter2_d" x="327.989" y="345.643" width="30.8154" height="25.8891" filterUnits="userSpaceOnUse" color-interpolation-filters="sRGB">
<feFlood flood-opacity="0" result="BackgroundImageFix"/>
<feColorMatrix in="SourceAlpha" type="matrix" values="0 0 0 0 0 0 0 0 0 0 0 0 0 0 0 0 0 0 127 0"/>
<feOffset/>
<feGaussianBlur stdDeviation="2"/>
<feColorMatrix type="matrix" values="0 0 0 0 0 0 0 0 0 0 0 0 0 0 0 0 0 0 0.25 0"/>
<feBlend mode="normal" in2="BackgroundImageFix" result="effect1_dropShadow"/>
<feBlend mode="normal" in="SourceGraphic" in2="effect1_dropShadow" result="shape"/>
</filter>
<filter id="filter3_i" x="360.432" y="363.768" width="12.5812" height="10.863" filterUnits="userSpaceOnUse" color-interpolation-filters="sRGB">
<feFlood flood-opacity="0" result="BackgroundImageFix"/>
<feBlend mode="normal" in="SourceGraphic" in2="BackgroundImageFix" result="shape"/>
<feColorMatrix in="SourceAlpha" type="matrix" values="0 0 0 0 0 0 0 0 0 0 0 0 0 0 0 0 0 0 127 0" result="hardAlpha"/>
<feOffset dy="1"/>
<feGaussianBlur stdDeviation="2"/>
<feComposite in2="hardAlpha" operator="arithmetic" k2="-1" k3="1"/>
<feColorMatrix type="matrix" values="0 0 0 0 0 0 0 0 0 0 0 0 0 0 0 0 0 0 0.25 0"/>
<feBlend mode="normal" in2="shape" result="effect1_innerShadow"/>
</filter>
<filter id="filter4_d" x="357.282" y="360.496" width="18.8908" height="16.5379" filterUnits="userSpaceOnUse" color-interpolation-filters="sRGB">
<feFlood flood-opacity="0" result="BackgroundImageFix"/>
<feColorMatrix in="SourceAlpha" type="matrix" values="0 0 0 0 0 0 0 0 0 0 0 0 0 0 0 0 0 0 127 0"/>
<feOffset/>
<feGaussianBlur stdDeviation="2"/>
<feColorMatrix type="matrix" values="0 0 0 0 0 0 0 0 0 0 0 0 0 0 0 0 0 0 0.25 0"/>
<feBlend mode="normal" in2="BackgroundImageFix" result="effect1_dropShadow"/>
<feBlend mode="normal" in="SourceGraphic" in2="effect1_dropShadow" result="shape"/>
</filter>
<filter id="filter5_f" x="216.113" y="313.307" width="203.982" height="86.3568" filterUnits="userSpaceOnUse" color-interpolation-filters="sRGB">
<feFlood flood-opacity="0" result="BackgroundImageFix"/>
<feBlend mode="normal" in="SourceGraphic" in2="BackgroundImageFix" result="shape"/>
<feGaussianBlur stdDeviation="7.5" result="effect1_foregroundBlur"/>
</filter>
<filter id="filter6_i" x="266.695" y="312.465" width="57.0462" height="48.1034" filterUnits="userSpaceOnUse" color-interpolation-filters="sRGB">
<feFlood flood-opacity="0" result="BackgroundImageFix"/>
<feBlend mode="normal" in="SourceGraphic" in2="BackgroundImageFix" result="shape"/>
<feColorMatrix in="SourceAlpha" type="matrix" values="0 0 0 0 0 0 0 0 0 0 0 0 0 0 0 0 0 0 127 0" result="hardAlpha"/>
<feOffset dy="4"/>
<feGaussianBlur stdDeviation="2"/>
<feComposite in2="hardAlpha" operator="arithmetic" k2="-1" k3="1"/>
<feColorMatrix type="matrix" values="0 0 0 0 0 0 0 0 0 0 0 0 0 0 0 0 0 0 0.25 0"/>
<feBlend mode="normal" in2="shape" result="effect1_innerShadow"/>
</filter>
<linearGradient id="paint0_linear" x1="376.874" y1="351.529" x2="485.603" y2="420.422" gradientUnits="userSpaceOnUse">
<stop stop-color="#8229F3"/>
<stop offset="1" stop-color="#FF007A" stop-opacity="0.6"/>
</linearGradient>
<radialGradient id="paint1_radial" cx="0" cy="0" r="1" gradientUnits="userSpaceOnUse" gradientTransform="translate(338.106 335.558) rotate(32.3873) scale(76.3795 55.8994)">
<stop stop-color="white"/>
<stop offset="1" stop-color="white" stop-opacity="0"/>
</radialGradient>
<linearGradient id="paint2_linear" x1="349.262" y1="268.583" x2="307.591" y2="381.423" gradientUnits="userSpaceOnUse">
<stop stop-color="#FBF3FF"/>
<stop offset="1" stop-color="#8A48AA"/>
</linearGradient>
<linearGradient id="paint3_linear" x1="356.151" y1="370.892" x2="394.463" y2="291.123" gradientUnits="userSpaceOnUse">
<stop offset="0.358388" stop-color="#9E5EA8"/>
<stop offset="0.510097" stop-color="#BB57CB"/>
<stop offset="0.584712" stop-color="#713D79"/>
<stop offset="1" stop-color="#AB4EBA"/>
</linearGradient>
<linearGradient id="paint4_linear" x1="378.621" y1="329.007" x2="384.038" y2="315.309" gradientUnits="userSpaceOnUse">
<stop offset="0.358388" stop-color="#CC7ED9"/>
<stop offset="0.770833" stop-color="#EA97F8"/>
</linearGradient>
<linearGradient id="paint5_linear" x1="289.698" y1="454.328" x2="336.306" y2="356.634" gradientUnits="userSpaceOnUse">
<stop offset="0.358388" stop-color="#D07CDD"/>
<stop offset="0.541667" stop-color="#D995E4"/>
<stop offset="0.679116" stop-color="#C26AD0"/>
<stop offset="1" stop-color="#AB4EBA"/>
</linearGradient>
<linearGradient id="paint6_linear" x1="278.173" y1="452.997" x2="280.098" y2="445.182" gradientUnits="userSpaceOnUse">
<stop stop-color="#542269"/>
<stop offset="0.484375" stop-color="#8632AB"/>
<stop offset="1" stop-color="#E1ABF9"/>
</linearGradient>
<linearGradient id="paint7_linear" x1="419.918" y1="211.496" x2="364.548" y2="304.486" gradientUnits="userSpaceOnUse">
<stop offset="0.358388" stop-color="#D07CDD"/>
<stop offset="0.541667" stop-color="#D995E4"/>
<stop offset="0.679116" stop-color="#C26AD0"/>
<stop offset="1" stop-color="#AB4EBA"/>
</linearGradient>
<linearGradient id="paint8_linear" x1="412.402" y1="202.644" x2="406.976" y2="208.58" gradientUnits="userSpaceOnUse">
<stop stop-color="#542269"/>
<stop offset="0.484375" stop-color="#8632AB"/>
<stop offset="1" stop-color="#E1ABF9"/>
</linearGradient>
<linearGradient id="paint9_linear" x1="401.64" y1="342.454" x2="407.637" y2="330.395" gradientUnits="userSpaceOnUse">
<stop stop-color="#542269"/>
<stop offset="0.484375" stop-color="#8632AB"/>
<stop offset="1" stop-color="#CB88E8"/>
</linearGradient>
<linearGradient id="paint10_linear" x1="401.64" y1="342.454" x2="407.115" y2="332.245" gradientUnits="userSpaceOnUse">
<stop offset="0.213542" stop-color="#542269"/>
<stop offset="0.614583" stop-color="#8632AB"/>
<stop offset="1" stop-color="#DEACF4"/>
</linearGradient>
<radialGradient id="paint11_radial" cx="0" cy="0" r="1" gradientUnits="userSpaceOnUse" gradientTransform="translate(216.173 181.737) rotate(94.4057) scale(242.002 244.19)">
<stop stop-color="#F1D2F7"/>
<stop offset="0.21875" stop-color="#D7AFE9"/>
<stop offset="0.374155" stop-color="#D66BE7"/>
<stop offset="0.700805" stop-color="#7A2A9D"/>
</radialGradient>
<radialGradient id="paint12_radial" cx="0" cy="0" r="1" gradientUnits="userSpaceOnUse" gradientTransform="translate(11.4949 8.82876) rotate(90) scale(8.82876 11.4949)">
<stop stop-color="#FAFAFE"/>
<stop offset="0.916667" stop-color="#CED1E1"/>
<stop offset="1" stop-color="#A5A9BE"/>
</radialGradient>
<radialGradient id="paint13_radial" cx="0" cy="0" r="1" gradientUnits="userSpaceOnUse" gradientTransform="translate(5.48672 4.21411) rotate(90) scale(4.21411 5.48672)">
<stop stop-color="#BFC4E1"/>
<stop offset="1" stop-color="#A5A9BE"/>
</radialGradient>
<radialGradient id="paint14_radial" cx="0" cy="0" r="1" gradientUnits="userSpaceOnUse" gradientTransform="translate(5.48672 4.21411) rotate(90) scale(4.21411 5.48672)">
<stop stop-color="#FAFAFE"/>
<stop offset="0.916667" stop-color="#CED1E1"/>
<stop offset="1" stop-color="#A5A9BE"/>
</radialGradient>
<linearGradient id="paint15_linear" x1="18.1865" y1="1.60245" x2="26.6125" y2="43.4533" gradientUnits="userSpaceOnUse">
<stop offset="0.0655204" stop-color="#2C2C2C"/>
<stop offset="0.321741" stop-color="#484848"/>
<stop offset="0.445411" stop-color="#2C2C2C"/>
<stop offset="0.590796" stop-color="#596469"/>
<stop offset="0.787118" stop-color="#4B4B4B"/>
</linearGradient>
</defs>
</svg>
