<svg width="1883" height="1014" viewBox="0 0 1883 1014" fill="none" xmlns="http://www.w3.org/2000/svg">
<ellipse opacity="0.6" cx="683.729" cy="562.934" rx="4.02989" ry="4.21488" transform="rotate(90 683.729 562.934)" fill="white"/>
<ellipse cx="189.183" cy="999.953" rx="4.02989" ry="4.21488" transform="rotate(90 189.183 999.953)" fill="white"/>
<ellipse opacity="0.6" cx="772.711" cy="757.264" rx="4.02989" ry="4.21488" transform="rotate(90 772.711 757.264)" fill="white"/>
<ellipse cx="405.852" cy="637.116" rx="2.23932" ry="2.3416" transform="rotate(90 405.852 637.116)" fill="white"/>
<ellipse cx="561.043" cy="47.9221" rx="5.82095" ry="6.08817" transform="rotate(90 561.043 47.9221)" fill="white"/>
<ellipse cx="480.752" cy="781.538" rx="5.82095" ry="6.08817" transform="rotate(90 480.752 781.538)" fill="white"/>
<ellipse cx="581.165" cy="884.806" rx="2.23932" ry="2.3416" transform="rotate(90 581.165 884.806)" fill="white"/>
<ellipse rx="7.61201" ry="7.96145" transform="matrix(4.5718e-08 -1 -1 -4.17928e-08 640.645 637.263)" fill="white"/>
<ellipse opacity="0.6" cx="1384.24" cy="441.049" rx="4.02989" ry="4.21488" transform="rotate(-90 1384.24 441.049)" fill="white"/>
<ellipse cx="1878.79" cy="4.02996" rx="4.02989" ry="4.21488" transform="rotate(-90 1878.79 4.02996)" fill="white"/>
<ellipse opacity="0.6" cx="1295.26" cy="246.719" rx="4.02989" ry="4.21488" transform="rotate(-90 1295.26 246.719)" fill="white"/>
<ellipse cx="1611.84" cy="302.241" rx="2.23932" ry="2.3416" transform="rotate(-90 1611.84 302.241)" fill="white"/>
<ellipse cx="1647.59" cy="47.3161" rx="5.82095" ry="6.08817" transform="rotate(-90 1647.59 47.3161)" fill="white"/>
<ellipse cx="1437.69" cy="84.1914" rx="2.23932" ry="2.3416" transform="rotate(-90 1437.69 84.1914)" fill="white"/>
<ellipse rx="7.61201" ry="7.96145" transform="matrix(-4.5718e-08 1 1 4.17928e-08 1427.32 366.72)" fill="white"/>
<ellipse opacity="0.6" rx="4.02989" ry="4.21489" transform="matrix(-4.5718e-08 -1 -1 4.17928e-08 1186.09 774.842)" fill="white"/>
<ellipse rx="4.02989" ry="4.21489" transform="matrix(-4.5718e-08 -1 -1 4.17928e-08 80.0556 881.653)" fill="white"/>
<ellipse opacity="0.6" rx="4.02989" ry="4.21489" transform="matrix(-4.5718e-08 -1 -1 4.17928e-08 1275.07 580.512)" fill="white"/>
<ellipse rx="2.23932" ry="2.3416" transform="matrix(-4.5718e-08 -1 -1 4.17928e-08 958.483 636.034)" fill="white"/>
<ellipse rx="5.82095" ry="6.08817" transform="matrix(-4.5718e-08 -1 -1 4.17928e-08 896.307 544.827)" fill="white"/>
<ellipse rx="2.23932" ry="2.3416" transform="matrix(-4.5718e-08 -1 -1 4.17928e-08 1083.52 452.97)" fill="white"/>
<ellipse rx="2.23932" ry="2.3416" transform="matrix(-4.5718e-08 -1 -1 4.17928e-08 1215.89 106.485)" fill="white"/>
<ellipse cx="1143" cy="700.513" rx="7.61201" ry="7.96145" transform="rotate(90 1143 700.513)" fill="white"/>
<ellipse rx="4.02989" ry="4.21489" transform="matrix(4.5718e-08 1 1 -4.17928e-08 581.122 448.31)" fill="white"/>
<ellipse opacity="0.6" rx="4.02989" ry="4.21489" transform="matrix(4.5718e-08 1 1 -4.17928e-08 34.5957 205.621)" fill="white"/>
<ellipse rx="2.23932" ry="2.3416" transform="matrix(4.5718e-08 1 1 -4.17928e-08 367.878 75.8932)" fill="white"/>
<ellipse rx="5.82095" ry="6.08817" transform="matrix(4.5718e-08 1 1 -4.17928e-08 376.355 241.306)" fill="white"/>
<ellipse rx="2.23932" ry="2.3416" transform="matrix(4.5718e-08 1 1 -4.17928e-08 189.141 333.163)" fill="white"/>
<ellipse cx="129.662" cy="85.6202" rx="7.61201" ry="7.96145" transform="rotate(-90 129.662 85.6202)" fill="white"/>
<ellipse rx="2.23933" ry="2.3416" transform="matrix(-0.00702052 0.999975 -0.999979 -0.00641778 717.358 76.2378)" fill="white"/>
<ellipse rx="2.23933" ry="2.3416" transform="matrix(-0.00702052 0.999975 -0.999979 -0.00641778 1390.36 174.216)" fill="white"/>
<ellipse rx="7.61202" ry="7.96144" transform="matrix(0.00702052 -0.999975 -0.999979 -0.00641778 896.969 64.5607)" fill="white"/>
<ellipse opacity="0.6" rx="4.21489" ry="4.02989" transform="matrix(1 0 0 -1 4.21488 617.901)" fill="white"/>
<ellipse rx="4.21489" ry="4.02989" transform="matrix(1 0 0 -1 424.685 145.113)" fill="white"/>
<ellipse opacity="0.6" rx="4.21489" ry="4.02989" transform="matrix(1 0 0 -1 170.855 703.029)" fill="white"/>
<ellipse rx="2.3416" ry="2.23932" transform="matrix(1 0 0 -1 112.782 400.339)" fill="white"/>
<ellipse rx="6.08817" ry="5.82095" transform="matrix(1 0 0 -1 208.177 340.894)" fill="white"/>
<ellipse rx="2.3416" ry="2.23932" transform="matrix(1 0 0 -1 304.25 519.891)" fill="white"/>
<ellipse cx="98.8491" cy="561.307" rx="7.96145" ry="7.61201" transform="rotate(180 98.8491 561.307)" fill="white"/>
<ellipse cx="153.034" cy="822.047" rx="7.96145" ry="7.61201" transform="rotate(180 153.034 822.047)" fill="white"/>
<ellipse rx="2.23932" ry="2.3416" transform="matrix(4.5718e-08 1 1 -4.17928e-08 27.3416 442.141)" fill="white"/>
<ellipse rx="5.82095" ry="6.08817" transform="matrix(4.5718e-08 1 1 -4.17928e-08 295.674 687.38)" fill="white"/>
<ellipse rx="4.19616" ry="4.04932" transform="matrix(0.951173 -0.308657 -0.333908 -0.942606 30.3443 1008.89)" fill="white"/>
</svg>
