<svg width="701" height="690" viewBox="0 0 701 690" fill="none" xmlns="http://www.w3.org/2000/svg">
<g filter="url(#filter0_i)">
<path d="M219.099 349.892C205.101 416.182 156.166 469.551 67.1261 469.817C14.4835 457.81 -57.2813 448.146 76.8008 505.551C244.403 577.306 371.054 490.15 414.688 370.015C447.883 278.62 538.532 182.554 751.963 333.638C887.811 429.802 816.112 446.187 766.215 510.661C775.317 556.398 772.582 661.625 688.832 716.641C584.145 785.411 475.594 705.96 457.793 626.817C439.992 547.674 496.811 487.718 553.67 479.579C599.158 473.069 627.955 506.459 636.667 523.968C586.162 410.143 418.611 459.135 413.866 613.832C409.121 768.53 600.347 900.748 830.278 747.277C1060.21 593.806 1092.2 107.284 697.383 17.2303C302.563 -72.823 244.752 228.405 219.099 349.892Z" fill="url(#paint0_linear)"/>
</g>
<defs>
<filter id="filter0_i" x="0.119141" y="-6.31677" width="1014.54" height="821.809" filterUnits="userSpaceOnUse" color-interpolation-filters="sRGB">
<feFlood flood-opacity="0" result="BackgroundImageFix"/>
<feBlend mode="normal" in="SourceGraphic" in2="BackgroundImageFix" result="shape"/>
<feColorMatrix in="SourceAlpha" type="matrix" values="0 0 0 0 0 0 0 0 0 0 0 0 0 0 0 0 0 0 127 0" result="hardAlpha"/>
<feOffset dx="15" dy="-7"/>
<feGaussianBlur stdDeviation="14"/>
<feComposite in2="hardAlpha" operator="arithmetic" k2="-1" k3="1"/>
<feColorMatrix type="matrix" values="0 0 0 0 0 0 0 0 0 0 0 0 0 0 0 0 0 0 0.15 0"/>
<feBlend mode="normal" in2="shape" result="effect1_innerShadow"/>
</filter>
<linearGradient id="paint0_linear" x1="-177.94" y1="118.328" x2="1.00773" y2="1091.42" gradientUnits="userSpaceOnUse">
<stop stop-color="#39ECB6"/>
<stop offset="0.0001" stop-color="#6FD2E8"/>
<stop offset="0.447917" stop-color="#8578D5"/>
<stop offset="0.902174" stop-color="#E83FE1"/>
</linearGradient>
</defs>
</svg>
