<svg width="24" height="25" viewBox="0 0 24 25" fill="none" xmlns="http://www.w3.org/2000/svg">
<path d="M4 20.5C3.45 20.5 2.979 20.304 2.587 19.912C2.195 19.52 1.99934 19.0493 2 18.5V6.5C2 5.95 2.196 5.479 2.588 5.087C2.98 4.695 3.45067 4.49934 4 4.5H20C20.55 4.5 21.021 4.696 21.413 5.088C21.805 5.48 22.0007 5.95067 22 6.5V18.5C22 19.05 21.804 19.521 21.412 19.913C21.02 20.305 20.5493 20.5007 20 20.5H4ZM20 8.5L12.525 13.175C12.4417 13.225 12.354 13.2627 12.262 13.288C12.17 13.3133 12.0827 13.3257 12 13.325C11.9167 13.325 11.829 13.3127 11.737 13.288C11.645 13.2633 11.5577 13.2257 11.475 13.175L4 8.5V18.5H20V8.5ZM12 11.5L20 6.5H4L12 11.5ZM4 8.75V7.275V7.3V7.288V8.75Z" fill="white"/>
</svg>
