<svg width="309" height="233" viewBox="0 0 309 233" fill="none" xmlns="http://www.w3.org/2000/svg">
<path d="M188.368 138.404L177.85 127.901C138.737 93.296 113.164 69.9702 113.164 41.3532C113.164 18.0705 131.242 0 154.524 0C160.97 0.0671144 167.326 1.51108 173.168 4.23513C179.01 6.95917 184.202 10.9004 188.397 15.7946C192.589 10.8991 197.779 6.95697 203.62 4.23277C209.461 1.50857 215.817 0.065352 222.262 0C245.545 0 263.622 18.0705 263.622 41.3532C263.622 69.9702 238.049 93.296 198.936 127.901L188.368 138.404Z" fill="#FF7575"/>
<path d="M308.14 136.711C305.348 139.748 302.016 142.368 298.972 145.132C295.304 148.471 291.542 151.694 287.729 154.875C280.665 160.776 273.442 166.498 266.342 172.364C264.906 168.774 261.934 165.766 258.797 163.684C254.029 160.518 248.279 158.895 242.492 158.048C246.082 153.417 252.055 151.5 257.224 149.21C263.248 146.547 268.065 142.354 273.22 138.355C278.375 134.356 283.824 130.838 290.407 130.357C296.56 129.912 304.127 131.678 308.14 136.711Z" fill="#FF7575"/>
<path d="M300.469 124.222C299.988 125.737 298.883 127.094 297.985 128.4C296.265 128.062 294.524 127.846 292.773 127.754C285.493 127.338 278.989 130.82 273.324 135.012C267.66 139.205 262.555 144.03 256.015 146.916C249.941 149.601 243.437 151.848 239.603 157.642C239.601 157.656 239.601 157.671 239.603 157.685C237.7 157.491 235.812 157.362 233.974 157.283C233.342 157.283 232.718 157.233 232.086 157.218C236.394 152.544 241.771 149.062 247.163 145.731C253.087 142.118 258.783 138.145 264.221 133.835C269.677 129.441 275.263 124.832 281.911 122.348C287.748 120.187 295.71 119.469 300.469 124.222Z" fill="#FF7575"/>
<path d="M278.715 120.793C273.618 123.062 269.045 126.63 264.759 130.047C261.887 132.309 259.13 134.628 256.186 136.76C253.106 139 249.84 140.982 246.602 142.985C240.141 146.998 233.507 151.184 228.654 157.178C223.886 157.178 219.119 157.537 214.359 157.896C218.588 153.668 223.549 150.236 228.388 146.74C233.828 142.676 239.006 138.271 243.888 133.551C248.756 128.999 253.939 124.598 260.214 122.157C266.121 119.931 272.546 119.457 278.715 120.793Z" fill="#FF7575"/>
<path d="M198.948 186.79C198.691 186.77 198.436 186.727 198.187 186.661C196.487 186.503 194.781 186.374 193.068 186.273L188.76 186.065C188.695 186.022 188.143 186.122 188.092 186.065C185.781 186.015 183.469 186.022 181.164 186.115L178.716 186.251C176.562 186.388 174.459 186.603 172.348 186.898C162.828 188.28 153.59 191.172 144.98 195.463C143.48 196.181 142.159 193.962 143.666 193.223C153.248 188.409 163.6 185.314 174.251 184.076C182.413 183.252 190.637 183.264 198.797 184.112C198.951 184.114 199.104 184.126 199.256 184.148L202.846 184.536C210.858 185.476 218.791 186.984 226.832 187.695C234.873 188.405 243.474 188.599 251.242 185.9C257.302 183.796 266.204 180.874 264.244 173.142C262.349 165.639 254.064 164.082 247.294 162.165C238.262 159.602 228.799 159.458 219.481 159.709C210.162 159.961 200.936 158.273 191.682 158.037C182.959 157.807 174.085 154.368 166.425 149.945C166.324 149.905 166.228 149.855 166.138 149.795L166.016 149.708C165.985 149.694 165.956 149.674 165.93 149.651C153.316 140.957 139.711 129.7 123.679 129.197C115.236 128.931 107.073 131.222 98.8743 132.894C94.8344 133.835 90.7187 134.414 86.5761 134.625C82.4766 134.711 78.3844 134.625 74.2922 134.625C64.7436 134.567 55.2668 135.084 46.2926 138.552C37.6804 141.839 29.5023 146.167 21.9401 151.439C14.3802 156.744 7.93314 163.134 1.27786 169.48C0.854279 169.89 0.430763 170.299 0 170.701L34.8917 222.823C36.9664 221.296 39.1392 219.908 41.3962 218.666C49.4444 214.255 58.5115 212.039 67.6871 212.241C77.1423 212.37 86.6191 214.057 95.8087 216.154C106.097 218.501 116.256 221.337 126.45 224.051C136.645 226.765 146.804 229.299 157.142 231.044C167.193 232.724 177.876 233.714 187.891 231.46C187.987 231.453 188.083 231.453 188.179 231.46C197.67 225.781 205.56 217.963 213.371 210.216C217.262 206.354 221.161 202.47 225.282 198.851C228.448 196.066 231.743 193.144 235.333 190.875C225.346 190.875 215.23 188.836 205.366 187.537L198.948 186.79Z" fill="#FF7575"/>
<path d="M215.109 152.729H215.334V152.541L215.109 152.729Z" fill="#FF7575"/>
</svg>
