<svg width="28" height="27" viewBox="0 0 28 27" fill="none" xmlns="http://www.w3.org/2000/svg">
<path d="M16.475 3.23438C15.095 3.23438 13.7716 3.78256 12.7958 4.75833C11.8201 5.73411 11.2719 7.05755 11.2719 8.4375V11.3344H8.4875C8.348 11.3344 8.23438 11.4469 8.23438 11.5875V15.4125C8.23438 15.552 8.34687 15.6656 8.4875 15.6656H11.2719V23.5125C11.2719 23.652 11.3844 23.7656 11.525 23.7656H15.35C15.4895 23.7656 15.6031 23.6531 15.6031 23.5125V15.6656H18.4122C18.5281 15.6656 18.6294 15.5869 18.6575 15.4744L19.6137 11.6494C19.6232 11.6121 19.6239 11.5731 19.616 11.5354C19.6081 11.4977 19.5917 11.4624 19.568 11.432C19.5444 11.4016 19.5141 11.377 19.4795 11.3601C19.445 11.3432 19.407 11.3344 19.3685 11.3344H15.6031V8.4375C15.6031 8.323 15.6257 8.20963 15.6695 8.10385C15.7133 7.99807 15.7775 7.90195 15.8585 7.82099C15.9395 7.74003 16.0356 7.67581 16.1413 7.63199C16.2471 7.58818 16.3605 7.56562 16.475 7.56562H19.4C19.5395 7.56562 19.6531 7.45312 19.6531 7.3125V3.4875C19.6531 3.348 19.5406 3.23438 19.4 3.23438H16.475Z" fill="#DC2D2A"/>
</svg>
